<svg id="visual" viewBox="0 0 5000 600" width="5000" height="600" xmlns="http://www.w3.org/2000/svg" xmlns:xlink="http://www.w3.org/1999/xlink" version="1.1"><path d="M0 265L119 268.3C238 271.7 476 278.3 714.2 289.8C952.3 301.3 1190.7 317.7 1428.8 308.2C1667 298.7 1905 263.3 2143 251.5C2381 239.7 2619 251.3 2857 256.5C3095 261.7 3333 260.3 3571.2 276.2C3809.3 292 4047.7 325 4285.8 322.3C4524 319.7 4762 281.3 4881 262.2L5000 243L5000 601L4881 601C4762 601 4524 601 4285.8 601C4047.7 601 3809.3 601 3571.2 601C3333 601 3095 601 2857 601C2619 601 2381 601 2143 601C1905 601 1667 601 1428.8 601C1190.7 601 952.3 601 714.2 601C476 601 238 601 119 601L0 601Z" fill="#fa6995"></path><path d="M0 277L119 299.5C238 322 476 367 714.2 379C952.3 391 1190.7 370 1428.8 364.5C1667 359 1905 369 2143 376.5C2381 384 2619 389 2857 377.8C3095 366.7 3333 339.3 3571.2 326C3809.3 312.7 4047.7 313.3 4285.8 330.2C4524 347 4762 380 4881 396.5L5000 413L5000 601L4881 601C4762 601 4524 601 4285.8 601C4047.7 601 3809.3 601 3571.2 601C3333 601 3095 601 2857 601C2619 601 2381 601 2143 601C1905 601 1667 601 1428.8 601C1190.7 601 952.3 601 714.2 601C476 601 238 601 119 601L0 601Z" fill="#da8adb"></path><path d="M0 367L119 383.2C238 399.3 476 431.7 714.2 428.3C952.3 425 1190.7 386 1428.8 380.5C1667 375 1905 403 2143 423.2C2381 443.3 2619 455.7 2857 464.2C3095 472.7 3333 477.3 3571.2 476.2C3809.3 475 4047.7 468 4285.8 455.5C4524 443 4762 425 4881 416L5000 407L5000 601L4881 601C4762 601 4524 601 4285.8 601C4047.7 601 3809.3 601 3571.2 601C3333 601 3095 601 2857 601C2619 601 2381 601 2143 601C1905 601 1667 601 1428.8 601C1190.7 601 952.3 601 714.2 601C476 601 238 601 119 601L0 601Z" fill="#9cadff"></path><path d="M0 527L119 525.5C238 524 476 521 714.2 502.5C952.3 484 1190.7 450 1428.8 434.5C1667 419 1905 422 2143 427.5C2381 433 2619 441 2857 459C3095 477 3333 505 3571.2 512.7C3809.3 520.3 4047.7 507.7 4285.8 489.3C4524 471 4762 447 4881 435L5000 423L5000 601L4881 601C4762 601 4524 601 4285.8 601C4047.7 601 3809.3 601 3571.2 601C3333 601 3095 601 2857 601C2619 601 2381 601 2143 601C1905 601 1667 601 1428.8 601C1190.7 601 952.3 601 714.2 601C476 601 238 601 119 601L0 601Z" fill="#5bc8ff"></path><path d="M0 537L119 535.3C238 533.7 476 530.3 714.2 521.2C952.3 512 1190.7 497 1428.8 490.5C1667 484 1905 486 2143 492.8C2381 499.7 2619 511.3 2857 517.7C3095 524 3333 525 3571.2 531.8C3809.3 538.7 4047.7 551.3 4285.8 553.2C4524 555 4762 546 4881 541.5L5000 537L5000 601L4881 601C4762 601 4524 601 4285.8 601C4047.7 601 3809.3 601 3571.2 601C3333 601 3095 601 2857 601C2619 601 2381 601 2143 601C1905 601 1667 601 1428.8 601C1190.7 601 952.3 601 714.2 601C476 601 238 601 119 601L0 601Z" fill="#53dbee"></path></svg>