<svg id="visual" viewBox="0 0 5000 1000" width="5000" height="1000" xmlns="http://www.w3.org/2000/svg" xmlns:xlink="http://www.w3.org/1999/xlink" version="1.1"><path d="M0 205L119 212.7C238 220.3 476 235.7 714.2 263C952.3 290.3 1190.7 329.7 1428.8 307.2C1667 284.7 1905 200.3 2143 172.2C2381 144 2619 172 2857 184.3C3095 196.7 3333 193.3 3571.2 231C3809.3 268.7 4047.7 347.3 4285.8 341C4524 334.7 4762 243.3 4881 197.7L5000 152L5000 1001L4881 1001C4762 1001 4524 1001 4285.8 1001C4047.7 1001 3809.3 1001 3571.2 1001C3333 1001 3095 1001 2857 1001C2619 1001 2381 1001 2143 1001C1905 1001 1667 1001 1428.8 1001C1190.7 1001 952.3 1001 714.2 1001C476 1001 238 1001 119 1001L0 1001Z" fill="#fa6995"></path><path d="M0 233L119 286.3C238 339.7 476 446.3 714.2 474.7C952.3 503 1190.7 453 1428.8 440C1667 427 1905 451 2143 468.8C2381 486.7 2619 498.3 2857 471.8C3095 445.3 3333 380.7 3571.2 349.2C3809.3 317.7 4047.7 319.3 4285.8 359.5C4524 399.7 4762 478.3 4881 517.7L5000 557L5000 1001L4881 1001C4762 1001 4524 1001 4285.8 1001C4047.7 1001 3809.3 1001 3571.2 1001C3333 1001 3095 1001 2857 1001C2619 1001 2381 1001 2143 1001C1905 1001 1667 1001 1428.8 1001C1190.7 1001 952.3 1001 714.2 1001C476 1001 238 1001 119 1001L0 1001Z" fill="#da8adb"></path><path d="M0 448L119 486.5C238 525 476 602 714.2 593.8C952.3 585.7 1190.7 492.3 1428.8 478.8C1667 465.3 1905 531.7 2143 579.5C2381 627.3 2619 656.7 2857 677C3095 697.3 3333 708.7 3571.2 706C3809.3 703.3 4047.7 686.7 4285.8 657C4524 627.3 4762 584.7 4881 563.3L5000 542L5000 1001L4881 1001C4762 1001 4524 1001 4285.8 1001C4047.7 1001 3809.3 1001 3571.2 1001C3333 1001 3095 1001 2857 1001C2619 1001 2381 1001 2143 1001C1905 1001 1667 1001 1428.8 1001C1190.7 1001 952.3 1001 714.2 1001C476 1001 238 1001 119 1001L0 1001Z" fill="#9cadff"></path><path d="M0 828L119 824.2C238 820.3 476 812.7 714.2 768.5C952.3 724.3 1190.7 643.7 1428.8 607C1667 570.3 1905 577.7 2143 590.8C2381 604 2619 623 2857 665.7C3095 708.3 3333 774.7 3571.2 792.8C3809.3 811 4047.7 781 4285.8 737.5C4524 694 4762 637 4881 608.5L5000 580L5000 1001L4881 1001C4762 1001 4524 1001 4285.8 1001C4047.7 1001 3809.3 1001 3571.2 1001C3333 1001 3095 1001 2857 1001C2619 1001 2381 1001 2143 1001C1905 1001 1667 1001 1428.8 1001C1190.7 1001 952.3 1001 714.2 1001C476 1001 238 1001 119 1001L0 1001Z" fill="#5bc8ff"></path><path d="M0 851L119 847.2C238 843.3 476 835.7 714.2 814C952.3 792.3 1190.7 756.7 1428.8 741C1667 725.3 1905 729.7 2143 745.8C2381 762 2619 790 2857 805.2C3095 820.3 3333 822.7 3571.2 838.8C3809.3 855 4047.7 885 4285.8 889.3C4524 893.7 4762 872.3 4881 861.7L5000 851L5000 1001L4881 1001C4762 1001 4524 1001 4285.8 1001C4047.7 1001 3809.3 1001 3571.2 1001C3333 1001 3095 1001 2857 1001C2619 1001 2381 1001 2143 1001C1905 1001 1667 1001 1428.8 1001C1190.7 1001 952.3 1001 714.2 1001C476 1001 238 1001 119 1001L0 1001Z" fill="#53dbee"></path></svg>